# xmcd
#
# Track frame offsets:
#	150
#	28305
#	43646
#	54145
#	70303
#	83256
#	96441
#	110574
#	121200
#	133339
#	144819
#	161580
#	174513
#
# Disc length: 2499 seconds
#
# Revision: 2
# Processed by: cddbd v1.5.2PL0 Copyright (c) Steve Scherf et al.
# Submitted via: audiograbber 1.83.01
#
DISCID=ab09c10d
DTITLE=B.B.King - Beale Street Blues Boys 09
DYEAR=1960
DGENRE=Blues
TTITLE0=B.B.King - Sweet Sixteen Part I&II (Ertegun)
TTITLE1=B.B.King - Yes Indeed (Oliver)
TTITLE2=B.B.King - Bad Luck Blues (Jefferson)
TTITLE3=B.B.King - It's My Own Fault (Hooker)
TTITLE4=B.B.King - Please Love Me (King - King - Taub)
TTITLE5=B.B.King - Somer Day Somewhere (King - Taub)
TTITLE6=B.B.King - I Was Blind (King - Ling - Taub)
TTITLE7=B.B.King - Bad Case (Irving - Josea)
TTITLE8=B.B.King - Understand (Gant)
TTITLE9=B.B.King - Catfish Blues (Petway)
TTITLE10=B.B.King - Walking Doctor Bill (Clayton)
TTITLE11=B.B.King - Driving Wheel (Sykes)
TTITLE12=B.B.King - Someday Baby (Estes - Nixon)
EXTD=
EXTT0=
EXTT1=
EXTT2=
EXTT3=
EXTT4=
EXTT5=
EXTT6=
EXTT7=
EXTT8=
EXTT9=
EXTT10=
EXTT11=
EXTT12=arr.by Ledeburgh
PLAYORDER=
